# xmcd
# 
# Track frame offsets:
#     150
#     11067
#     21664
#     39292
#     58076
#     69608
#     81963
#     94664
#     106395
#     131466
#     143563
#     152267
#     163327
#     174486
#     186787
#     198716
#     210722
#     223746
#     236698
#     249435
#     262096
#     274531
#     284702
#     298003
#     308009
#     319900
#     330215
# 
# Disc length: 4585
# 
# Revision: 10
# Processed by: cddbd v1.5.2PL0 Copyright (c) Steve Scherf et al.
# Submitted via: fre:ac v1.0.31
# 
DISCID=9611e71b
DTITLE=R&B - What It Is! Disc 1
DYEAR=2006
DGENRE=R&B
TTITLE0=Watts 103rd St. Rhythm Band - Spreadin' Honey
TTITLE1=Bar-Kays - Soul Finger
TTITLE2=Brother Jack McDuff - The Shadow Of Your Smile
TTITLE3=Jimmy Norman - Gangster Of Love (Part 1 and 2)
TTITLE4=Rufus Thomas - The Memphis Train
TTITLE5=Grassella Oliphant - Get Out Of My Life Woman
TTITLE6=Eddie Harris - Live Right Now
TTITLE7=Natural Bridge Bunch - Pig Snoots (Part 1)
TTITLE8=Freedom Sounds featuring Wayne Henderson - Soul Sound System
TTITLE9=Clarence Carter - Snatching It Back
TTITLE10=Artie Christopher - Stoned Soul
TTITLE11=T.S.U. Toronadoes - Getting The Corners
TTITLE12=Tony Alvon and The Belairs - Sexy Coffee Pot
TTITLE13=Mark Putney - Don't Come Around Here Anymore
TTITLE14=The Commodores - Keep On Dancing
TTITLE15=Southshore Commission - Right On Brother (Part 1)
TTITLE16=Eldridge Holmes - Pop, Popcorn Children
TTITLE17=Cold Grits - It's Your Thing
TTITLE18=Soul Angels - It's All In Your Mind
TTITLE19=Johnny Cameron and The Camerons - Funky John
TTITLE20=Joyce Jones - Help Me Make Up My Mind
TTITLE21=Lou Johnson - Rock Me Baby
TTITLE22=Noble Knights - Sing A Simple Song
TTITLE23=Titus Turner - Do You Dig It
TTITLE24=Phil Moore Jr. - Funky Canyon
TTITLE25=Fabulous Counts - Jan Jan
TTITLE26=Rhine Oaks - Tampin
EXTD=
EXTT0=
EXTT1=
EXTT2=
EXTT3=
EXTT4=
EXTT5=
EXTT6=
EXTT7=
EXTT8=
EXTT9=
EXTT10=
EXTT11=
EXTT12=
EXTT13=
EXTT14=
EXTT15=
EXTT16=
EXTT17=
EXTT18=
EXTT19=
EXTT20=
EXTT21=
EXTT22=
EXTT23=
EXTT24=
EXTT25=
EXTT26=
PLAYORDER=
